<svg width="512" height="512" viewBox="0 0 512 512" fill="none" xmlns="http://www.w3.org/2000/svg">
  <!-- Modern Geometric Design - Angular shapes representing code/forge -->

  <!-- Outer hexagon frame (Navy) -->
  <path d="M256 40 L420 136 L420 328 L256 424 L92 328 L92 136 Z"
        stroke="#2D3748" stroke-width="8" fill="none"/>

  <!-- Inner geometric C shape (Orange gradient) -->
  <defs>
    <linearGradient id="orangeGrad" x1="0%" y1="0%" x2="100%" y2="100%">
      <stop offset="0%" style="stop-color:#FF6B35;stop-opacity:1" />
      <stop offset="100%" style="stop-color:#FF8C42;stop-opacity:1" />
    </linearGradient>
  </defs>

  <!-- Geometric C made of angular blocks -->
  <path d="M 300 150 L 240 150 L 180 180 L 180 240 L 150 240 L 150 330 L 180 330 L 180 390 L 240 420 L 300 420 L 300 380 L 250 380 L 220 360 L 220 300 L 190 300 L 190 260 L 220 260 L 220 200 L 250 180 L 300 180 Z"
        fill="url(#orangeGrad)"/>

  <!-- Geometric hammer/forge element (Navy) -->
  <g transform="translate(320, 180)">
    <!-- Angular hammer head -->
    <polygon points="0,0 60,0 70,10 70,40 60,50 0,50 -10,40 -10,10" fill="#2D3748"/>
    <!-- Handle -->
    <rect x="20" y="45" width="20" height="80" fill="#2D3748"/>
    <!-- Bottom cap -->
    <polygon points="15,120 45,120 50,130 40,135 20,135 10,130" fill="#1A202C"/>
  </g>

  <!-- Binary code accent (Orange dots) -->
  <circle cx="140" cy="150" r="6" fill="#FF6B35"/>
  <circle cx="160" cy="150" r="6" fill="#FF6B35"/>
  <circle cx="140" cy="410" r="6" fill="#FF6B35"/>
  <circle cx="160" cy="410" r="6" fill="#FF6B35"/>

  <!-- Geometric sparks -->
  <polygon points="390,160 400,165 395,175 385,170" fill="#FF6B35"/>
  <polygon points="405,145 415,150 410,160 400,155" fill="#FF8C42"/>
  <polygon points="380,140 390,145 385,155 375,150" fill="#FF6B35"/>
</svg>